<mxfile host="65bd71144e">
    <diagram id="jOyQpY3a_rN9QhK610rb" name="Page-1">
        <mxGraphModel dx="1386" dy="974" grid="0" gridSize="10" guides="1" tooltips="1" connect="1" arrows="0" fold="1" page="1" pageScale="1" pageWidth="827" pageHeight="1169" background="#ffffff" math="0" shadow="0">
            <root>
                <mxCell id="0"/>
                <mxCell id="1" parent="0"/>
                <mxCell id="2" value="&lt;font color=&quot;#000000&quot; style=&quot;font-size: 15px;&quot;&gt;Sangeet - A music straming site&lt;/font&gt;" style="shape=rect;html=1;verticalAlign=top;fontStyle=1;whiteSpace=wrap;align=center;strokeWidth=2;fillColor=none;strokeColor=#050505;" vertex="1" parent="1">
                    <mxGeometry x="205" y="56" width="572" height="872" as="geometry"/>
                </mxCell>
                <mxCell id="3" value="Listener" style="shape=umlActor;html=1;verticalLabelPosition=bottom;verticalAlign=top;align=center;fontSize=15;strokeColor=#050505;fillColor=none;fontColor=#000000;" vertex="1" parent="1">
                    <mxGeometry x="25" y="305" width="50" height="100" as="geometry"/>
                </mxCell>
                <mxCell id="6" value="Artist" style="shape=umlActor;html=1;verticalLabelPosition=bottom;verticalAlign=top;align=center;fontSize=15;strokeColor=#050505;fillColor=none;fontColor=#000000;" vertex="1" parent="1">
                    <mxGeometry x="35" y="785" width="50" height="100" as="geometry"/>
                </mxCell>
                <mxCell id="8" value="Login" style="ellipse;whiteSpace=wrap;html=1;fontSize=15;strokeColor=#050505;fillColor=none;fontColor=#000000;" vertex="1" parent="1">
                    <mxGeometry x="305" y="175" width="140" height="70" as="geometry"/>
                </mxCell>
                <mxCell id="9" value="Register" style="ellipse;whiteSpace=wrap;html=1;fontSize=15;strokeColor=#050505;fillColor=none;fontColor=#000000;" vertex="1" parent="1">
                    <mxGeometry x="565" y="175" width="140" height="70" as="geometry"/>
                </mxCell>
                <mxCell id="10" value="&lt;font color=&quot;#000000&quot;&gt;&amp;lt;&amp;lt;include&amp;gt;&amp;gt;&lt;/font&gt;" style="edgeStyle=none;html=1;endArrow=open;verticalAlign=bottom;dashed=1;labelBackgroundColor=none;fontSize=15;entryX=0;entryY=0.5;entryDx=0;entryDy=0;exitX=1;exitY=0.5;exitDx=0;exitDy=0;strokeColor=#050505;" edge="1" parent="1" source="8" target="9">
                    <mxGeometry width="160" relative="1" as="geometry">
                        <mxPoint x="355" y="215" as="sourcePoint"/>
                        <mxPoint x="515" y="215" as="targetPoint"/>
                        <mxPoint as="offset"/>
                    </mxGeometry>
                </mxCell>
                <mxCell id="11" value="Browse Music" style="ellipse;whiteSpace=wrap;html=1;fontSize=15;strokeColor=#050505;fontColor=#000000;fillColor=none;" vertex="1" parent="1">
                    <mxGeometry x="305" y="255" width="140" height="70" as="geometry"/>
                </mxCell>
                <mxCell id="12" value="Play Music" style="ellipse;whiteSpace=wrap;html=1;fontSize=15;strokeColor=#050505;fillColor=none;fontColor=#000000;" vertex="1" parent="1">
                    <mxGeometry x="305" y="335" width="140" height="70" as="geometry"/>
                </mxCell>
                <mxCell id="13" value="Add to favourites" style="ellipse;whiteSpace=wrap;html=1;fontSize=15;strokeColor=#050505;fillColor=none;fontColor=#000000;" vertex="1" parent="1">
                    <mxGeometry x="305" y="415" width="140" height="70" as="geometry"/>
                </mxCell>
                <mxCell id="14" value="&lt;font color=&quot;#050505&quot;&gt;&amp;lt;&amp;lt;include&amp;gt;&amp;gt;&lt;/font&gt;" style="edgeStyle=none;html=1;endArrow=open;verticalAlign=bottom;dashed=1;labelBackgroundColor=none;fontSize=15;entryX=0.95;entryY=0.714;entryDx=0;entryDy=0;entryPerimeter=0;exitX=1;exitY=0.5;exitDx=0;exitDy=0;strokeColor=#050505;" edge="1" parent="1" source="13" target="8">
                    <mxGeometry width="160" relative="1" as="geometry">
                        <mxPoint x="665" y="425" as="sourcePoint"/>
                        <mxPoint x="825" y="425" as="targetPoint"/>
                        <Array as="points">
                            <mxPoint x="485" y="450"/>
                            <mxPoint x="485" y="225"/>
                        </Array>
                    </mxGeometry>
                </mxCell>
                <mxCell id="15" value="Add to playlist" style="ellipse;whiteSpace=wrap;html=1;fontSize=15;strokeColor=#050505;fillColor=none;fontColor=#000000;" vertex="1" parent="1">
                    <mxGeometry x="305" y="495" width="140" height="70" as="geometry"/>
                </mxCell>
                <mxCell id="16" value="Create playlist" style="ellipse;whiteSpace=wrap;html=1;fontSize=15;strokeColor=#050505;fillColor=none;fontColor=#000000;" vertex="1" parent="1">
                    <mxGeometry x="585" y="495" width="140" height="70" as="geometry"/>
                </mxCell>
                <mxCell id="17" value="&lt;font color=&quot;#000000&quot;&gt;&amp;lt;&amp;lt;include&amp;gt;&amp;gt;&lt;/font&gt;" style="edgeStyle=none;html=1;endArrow=open;verticalAlign=bottom;dashed=1;labelBackgroundColor=none;fontSize=15;entryX=0;entryY=0.5;entryDx=0;entryDy=0;exitX=1;exitY=0.5;exitDx=0;exitDy=0;strokeColor=#050505;" edge="1" parent="1" source="15" target="16">
                    <mxGeometry width="160" relative="1" as="geometry">
                        <mxPoint x="415" y="529.64" as="sourcePoint"/>
                        <mxPoint x="575" y="529.64" as="targetPoint"/>
                    </mxGeometry>
                </mxCell>
                <mxCell id="18" value="Upload Music" style="ellipse;whiteSpace=wrap;html=1;fontSize=15;strokeColor=#050505;fillColor=none;fontColor=#000000;" vertex="1" parent="1">
                    <mxGeometry x="305" y="685" width="140" height="70" as="geometry"/>
                </mxCell>
                <mxCell id="19" value="View Music Stats" style="ellipse;whiteSpace=wrap;html=1;fontSize=15;strokeColor=#050505;fillColor=none;" vertex="1" parent="1">
                    <mxGeometry x="305" y="765" width="140" height="70" as="geometry"/>
                </mxCell>
                <mxCell id="20" value="Edit music Stats" style="ellipse;whiteSpace=wrap;html=1;fontSize=15;strokeColor=#050505;fillColor=none;" vertex="1" parent="1">
                    <mxGeometry x="305" y="845" width="140" height="70" as="geometry"/>
                </mxCell>
                <mxCell id="23" value="" style="edgeStyle=none;html=1;endArrow=none;verticalAlign=bottom;fontSize=15;entryX=0;entryY=0.5;entryDx=0;entryDy=0;strokeColor=#050505;" edge="1" parent="1" source="3" target="8">
                    <mxGeometry width="160" relative="1" as="geometry">
                        <mxPoint x="345" y="515" as="sourcePoint"/>
                        <mxPoint x="505" y="515" as="targetPoint"/>
                    </mxGeometry>
                </mxCell>
                <mxCell id="24" value="" style="edgeStyle=none;html=1;endArrow=none;verticalAlign=bottom;fontSize=15;entryX=0;entryY=0.5;entryDx=0;entryDy=0;strokeColor=#050505;" edge="1" parent="1" source="3" target="11">
                    <mxGeometry width="160" relative="1" as="geometry">
                        <mxPoint x="85" y="350.78431372549016" as="sourcePoint"/>
                        <mxPoint x="315" y="220" as="targetPoint"/>
                    </mxGeometry>
                </mxCell>
                <mxCell id="25" value="" style="edgeStyle=none;html=1;endArrow=none;verticalAlign=bottom;fontSize=15;entryX=0;entryY=0.5;entryDx=0;entryDy=0;strokeColor=#050505;" edge="1" parent="1" source="3" target="12">
                    <mxGeometry width="160" relative="1" as="geometry">
                        <mxPoint x="75" y="335" as="sourcePoint"/>
                        <mxPoint x="315" y="300" as="targetPoint"/>
                    </mxGeometry>
                </mxCell>
                <mxCell id="26" value="" style="edgeStyle=none;html=1;endArrow=none;verticalAlign=bottom;fontSize=15;entryX=0;entryY=0.5;entryDx=0;entryDy=0;strokeColor=#050505;" edge="1" parent="1" source="3" target="13">
                    <mxGeometry width="160" relative="1" as="geometry">
                        <mxPoint x="85" y="375" as="sourcePoint"/>
                        <mxPoint x="315" y="380" as="targetPoint"/>
                    </mxGeometry>
                </mxCell>
                <mxCell id="27" value="" style="edgeStyle=none;html=1;endArrow=none;verticalAlign=bottom;fontSize=15;entryX=0;entryY=0.5;entryDx=0;entryDy=0;strokeColor=#050505;" edge="1" parent="1" source="3" target="15">
                    <mxGeometry width="160" relative="1" as="geometry">
                        <mxPoint x="95" y="384.9999999999999" as="sourcePoint"/>
                        <mxPoint x="314.9999999999984" y="459.9999999999999" as="targetPoint"/>
                    </mxGeometry>
                </mxCell>
                <mxCell id="30" value="" style="edgeStyle=none;html=1;endArrow=none;verticalAlign=bottom;fontSize=15;entryX=0;entryY=0.5;entryDx=0;entryDy=0;strokeColor=#050505;" edge="1" parent="1" target="8">
                    <mxGeometry width="160" relative="1" as="geometry">
                        <mxPoint x="85" y="765" as="sourcePoint"/>
                        <mxPoint x="315.000000000005" y="540" as="targetPoint"/>
                    </mxGeometry>
                </mxCell>
                <mxCell id="31" value="" style="edgeStyle=none;html=1;endArrow=none;verticalAlign=bottom;fontSize=15;entryX=0;entryY=0.5;entryDx=0;entryDy=0;strokeColor=#050505;" edge="1" parent="1" target="11">
                    <mxGeometry width="160" relative="1" as="geometry">
                        <mxPoint x="95" y="785" as="sourcePoint"/>
                        <mxPoint x="315.000000000005" y="220" as="targetPoint"/>
                    </mxGeometry>
                </mxCell>
                <mxCell id="32" value="" style="edgeStyle=none;html=1;endArrow=none;verticalAlign=bottom;fontSize=15;entryX=0;entryY=0.5;entryDx=0;entryDy=0;strokeColor=#050505;" edge="1" parent="1" target="12">
                    <mxGeometry width="160" relative="1" as="geometry">
                        <mxPoint x="95" y="825" as="sourcePoint"/>
                        <mxPoint x="315.000000000005" y="300" as="targetPoint"/>
                    </mxGeometry>
                </mxCell>
                <mxCell id="33" value="" style="edgeStyle=none;html=1;endArrow=none;verticalAlign=bottom;fontSize=15;entryX=0;entryY=0.5;entryDx=0;entryDy=0;strokeColor=#050505;" edge="1" parent="1" target="13">
                    <mxGeometry width="160" relative="1" as="geometry">
                        <mxPoint x="105" y="835" as="sourcePoint"/>
                        <mxPoint x="315.000000000005" y="380" as="targetPoint"/>
                    </mxGeometry>
                </mxCell>
                <mxCell id="34" value="" style="edgeStyle=none;html=1;endArrow=none;verticalAlign=bottom;fontSize=15;entryX=0;entryY=0.5;entryDx=0;entryDy=0;strokeColor=#050505;" edge="1" parent="1" target="15">
                    <mxGeometry width="160" relative="1" as="geometry">
                        <mxPoint x="115" y="845" as="sourcePoint"/>
                        <mxPoint x="315.000000000005" y="460" as="targetPoint"/>
                    </mxGeometry>
                </mxCell>
                <mxCell id="35" value="" style="edgeStyle=none;html=1;endArrow=none;verticalAlign=bottom;fontSize=15;entryX=0;entryY=0.5;entryDx=0;entryDy=0;strokeColor=#050505;" edge="1" parent="1" target="18">
                    <mxGeometry width="160" relative="1" as="geometry">
                        <mxPoint x="145" y="845" as="sourcePoint"/>
                        <mxPoint x="315.000000000005" y="540" as="targetPoint"/>
                    </mxGeometry>
                </mxCell>
                <mxCell id="36" value="" style="edgeStyle=none;html=1;endArrow=none;verticalAlign=bottom;fontSize=15;entryX=0;entryY=0.5;entryDx=0;entryDy=0;strokeColor=#050505;" edge="1" parent="1" target="19">
                    <mxGeometry width="160" relative="1" as="geometry">
                        <mxPoint x="105" y="865" as="sourcePoint"/>
                        <mxPoint x="315.000000000005" y="730" as="targetPoint"/>
                    </mxGeometry>
                </mxCell>
                <mxCell id="37" value="" style="edgeStyle=none;html=1;endArrow=none;verticalAlign=bottom;fontSize=15;entryX=0;entryY=0.5;entryDx=0;entryDy=0;strokeColor=#050505;" edge="1" parent="1" target="20">
                    <mxGeometry width="160" relative="1" as="geometry">
                        <mxPoint x="105" y="875" as="sourcePoint"/>
                        <mxPoint x="315.000000000005" y="810" as="targetPoint"/>
                    </mxGeometry>
                </mxCell>
                <mxCell id="38" value="&lt;font color=&quot;#000000&quot;&gt;&amp;lt;&amp;lt;include&amp;gt;&amp;gt;&lt;/font&gt;" style="edgeStyle=none;html=1;endArrow=open;verticalAlign=bottom;dashed=1;labelBackgroundColor=none;fontSize=15;exitX=1;exitY=0.5;exitDx=0;exitDy=0;entryX=0.5;entryY=0;entryDx=0;entryDy=0;strokeColor=#050505;" edge="1" parent="1" source="18" target="8">
                    <mxGeometry width="160" relative="1" as="geometry">
                        <mxPoint x="395" y="155" as="sourcePoint"/>
                        <mxPoint x="555" y="155" as="targetPoint"/>
                        <Array as="points">
                            <mxPoint x="735" y="725"/>
                            <mxPoint x="732" y="431"/>
                            <mxPoint x="735" y="145"/>
                            <mxPoint x="375" y="145"/>
                        </Array>
                    </mxGeometry>
                </mxCell>
                <mxCell id="51" value="Edit music Stats" style="ellipse;whiteSpace=wrap;html=1;fontSize=15;strokeColor=#050505;fillColor=none;fontColor=#000000;" vertex="1" parent="1">
                    <mxGeometry x="305" y="845" width="140" height="70" as="geometry"/>
                </mxCell>
                <mxCell id="52" value="View Music Stats" style="ellipse;whiteSpace=wrap;html=1;fontSize=15;strokeColor=#050505;fillColor=none;fontColor=#000000;" vertex="1" parent="1">
                    <mxGeometry x="305" y="765" width="140" height="70" as="geometry"/>
                </mxCell>
            </root>
        </mxGraphModel>
    </diagram>
</mxfile>